<?xml version="1.0" encoding="utf-8"?>
<!-- Svg Vector Icons : http://www.onlinewebfonts.com/icon -->
<!DOCTYPE svg PUBLIC "-//W3C//DTD SVG 1.1//EN" "http://www.w3.org/Graphics/SVG/1.1/DTD/svg11.dtd">
<svg version="1.1" xmlns="http://www.w3.org/2000/svg" xmlns:xlink="http://www.w3.org/1999/xlink" x="0px" y="0px" viewBox="0 0 1000 1000" enable-background="new 0 0 1000 1000" xml:space="preserve">
<metadata> Svg Vector Icons : http://www.onlinewebfonts.com/icon </metadata>
<g><path d="M922.4,81.5l-3.9-3.9c-90.1-90.1-237.5-90.1-327.6,0L382.2,286.4c-90.1,90.1-90.1,237.5,0,327.6l3.9,3.8c7.5,7.5,15.5,14.3,23.7,20.6l76.4-76.5c-8.9-5.2-17.4-11.6-25-19.2l-3.9-3.8c-48.9-48.9-48.9-128.5,0-177.5l208.9-208.7c48.8-48.9,128.4-48.9,177.3,0l3.9,3.8c48.9,48.9,48.9,128.5,0,177.4L753,428.4c16.3,40.5,24.1,83.7,23.4,126.6l146-146C1012.5,319,1012.5,171.6,922.4,81.5L922.4,81.5L922.4,81.5L922.4,81.5z M613.9,382.3c-7.5-7.5-15.5-14.3-23.7-20.5l-76.3,76.4c8.9,5.3,17.4,11.6,25,19.2l3.9,3.9c48.9,48.9,48.9,128.4,0,177.4L334,847.4c-48.9,48.9-128.5,48.9-177.4,0l-3.9-3.9c-48.9-48.9-48.9-128.6,0-177.4l94.4-94.4c-16.4-40.5-24.2-83.7-23.4-126.7L77.6,590.9c-90.1,90.2-90.1,237.6,0,327.6l3.9,3.9c90.1,90,237.5,90,327.6,0l208.7-208.8c90-90.1,90-237.6,0-327.6L613.9,382.3L613.9,382.3L613.9,382.3L613.9,382.3z"/></g>
</svg>